<svg xmlns="http://www.w3.org/2000/svg" viewBox="0 0 512 512" role="img" aria-label="Bianore Attendance">
  <rect width="512" height="512" rx="112" fill="#2563eb"/>
  <path d="M126 162c0-24 19-43 43-43h174c24 0 43 19 43 43v188c0 24-19 43-43 43H169c-24 0-43-19-43-43V162Z" fill="#fff"/>
  <path d="M171 190c0-13 11-24 24-24h122c13 0 24 11 24 24v19H171v-19Z" fill="#dbeafe"/>
  <path d="M185 262h142" stroke="#2563eb" stroke-width="24" stroke-linecap="round"/>
  <path d="m191 324 38 38 91-104" fill="none" stroke="#16a34a" stroke-width="30" stroke-linecap="round" stroke-linejoin="round"/>
  <circle cx="256" cy="136" r="34" fill="#1d4ed8"/>
</svg>
